<svg xmlns="http://www.w3.org/2000/svg" viewBox="0 0 666 198"><path d="M188.8 27h36v144h-36zm54 0v144h36V81l36 36 36-36v90h36V27h-36l-36 36-36-36"/><path fill="none" d="M456.3 63h-15.5v72.1h15.5c51.3 0 51.6-72.1 0-72.1z"/><path d="M441.1 27h-36v144h36c119.2 0 119.8-144 0-144zm15.2 108.1h-15.5V63h15.5c51.6 0 51.3 72.1 0 72.1z"/><path fill="#2EAB61" d="M548.8 52.8h27v117h-27zm54.3.1v45l36.1-22.5"/><path fill="none" stroke="#2EAB61" stroke-width="27" stroke-miterlimit="10" d="M562.3 120.4v-27s9.5-17.7 54-18"/><path fill="#C03A2A" d="M89.9 52.8h27v76.5h-27z"/><path fill="#C03A29" d="M62.9 52.8v45L26.8 75.3"/><path fill="none" stroke="#C03A29" stroke-width="27" stroke-miterlimit="10" d="M103.4 120.3v-27s-9.5-17.7-54-18m108 53.6s-.3 26.9-27 27-27-27-27-27"/><path fill="#C03A2A" d="M116.9 70.8h54v27h-54z"/></svg>