<svg xmlns="http://www.w3.org/2000/svg" viewBox="0 0 666 198"><path fill="#FFF" d="M189 27h36v144h-36zm54 0v144h36V81l36 36 36-36v90h36V27h-36l-36 36-36-36"/><path fill="none" d="M456.5 63H441v72.1h15.5c51.3 0 51.6-72.1 0-72.1z"/><path fill="#FFF" d="M441.3 27h-36v144h36c119.2 0 119.8-144 0-144zm15.2 108.1H441V63h15.5c51.6 0 51.3 72.1 0 72.1z"/><path fill="#2EAB61" d="M549 54h27v117h-27zm54.3.1v45l36.1-22.5"/><path fill="none" stroke="#2EAB61" stroke-width="27" stroke-miterlimit="10" d="M562.5 121.6v-27s9.5-17.7 54-18"/><path fill="#C03A2A" d="M90.1 54h27v76.5h-27z"/><path fill="#C03A29" d="M63.1 54v45L27 76.5"/><path fill="none" stroke="#C03A29" stroke-width="27" stroke-miterlimit="10" d="M103.6 121.5v-27s-9.5-17.7-54-18m108 53.6s-.3 26.9-27 27-27-27-27-27"/><path fill="#C03A2A" d="M117.1 72h54v27h-54z"/></svg>